<?xml version="1.0" encoding="UTF-8" standalone="no"?>
<!-- Created with Inkscape (http://www.inkscape.org/) -->

<svg
   xmlns:dc="http://purl.org/dc/elements/1.1/"
   xmlns:cc="http://creativecommons.org/ns#"
   xmlns:rdf="http://www.w3.org/1999/02/22-rdf-syntax-ns#"
   xmlns:svg="http://www.w3.org/2000/svg"
   xmlns="http://www.w3.org/2000/svg"
   xmlns:sodipodi="http://sodipodi.sourceforge.net/DTD/sodipodi-0.dtd"
   xmlns:inkscape="http://www.inkscape.org/namespaces/inkscape"
   id="svg7198"
   height="37.312"
   width="37.312"
   version="1.1"
   inkscape:version="0.91 r13725"
   sodipodi:docname="handle.svg">
  <sodipodi:namedview
     pagecolor="#ffffff"
     bordercolor="#666666"
     borderopacity="1"
     objecttolerance="10"
     gridtolerance="10"
     guidetolerance="10"
     inkscape:pageopacity="0"
     inkscape:pageshadow="2"
     inkscape:window-width="1137"
     inkscape:window-height="700"
     id="namedview17"
     showgrid="false"
     inkscape:zoom="4.4724807"
     inkscape:cx="-13.429103"
     inkscape:cy="18.656"
     inkscape:window-x="549"
     inkscape:window-y="360"
     inkscape:window-maximized="0"
     inkscape:current-layer="g4170" />
  <defs
     id="defs7200">
    <marker
       inkscape:stockid="Arrow1Send"
       orient="auto"
       refY="0.0"
       refX="0.0"
       id="Arrow1Send"
       style="overflow:visible;"
       inkscape:isstock="true">
      <path
         id="path4162"
         d="M 0.0,0.0 L 5.0,-5.0 L -12.5,0.0 L 5.0,5.0 L 0.0,0.0 z "
         style="fill-rule:evenodd;stroke:#000000;stroke-width:1pt;stroke-opacity:1;fill:#000000;fill-opacity:1"
         transform="scale(0.2) rotate(180) translate(6,0)" />
    </marker>
    <marker
       inkscape:stockid="Arrow2Mstart"
       orient="auto"
       refY="0.0"
       refX="0.0"
       id="Arrow2Mstart"
       style="overflow:visible"
       inkscape:isstock="true">
      <path
         id="path4171"
         style="fill-rule:evenodd;stroke-width:0.625;stroke-linejoin:round;stroke:none;stroke-opacity:1;fill:#000000;fill-opacity:1"
         d="M 8.7185878,4.0337352 L -2.2072895,0.016013256 L 8.7185884,-4.0017078 C 6.9730900,-1.6296469 6.9831476,1.6157441 8.7185878,4.0337352 z "
         transform="scale(0.6) translate(0,0)" />
    </marker>
    <marker
       inkscape:stockid="Arrow2Mend"
       orient="auto"
       refY="0.0"
       refX="0.0"
       id="Arrow2Mend"
       style="overflow:visible;"
       inkscape:isstock="true">
      <path
         id="path4174"
         style="fill-rule:evenodd;stroke-width:0.625;stroke-linejoin:round;stroke:#000000;stroke-opacity:1;fill:#000000;fill-opacity:1"
         d="M 8.7185878,4.0337352 L -2.2072895,0.016013256 L 8.7185884,-4.0017078 C 6.9730900,-1.6296469 6.9831476,1.6157441 8.7185878,4.0337352 z "
         transform="scale(0.6) rotate(180) translate(0,0)" />
    </marker>
    <marker
       inkscape:stockid="Arrow1Lstart"
       orient="auto"
       refY="0.0"
       refX="0.0"
       id="marker4449"
       style="overflow:visible"
       inkscape:isstock="true">
      <path
         id="path4451"
         d="M 0.0,0.0 L 5.0,-5.0 L -12.5,0.0 L 5.0,5.0 L 0.0,0.0 z "
         style="fill-rule:evenodd;stroke:none;stroke-width:1pt;stroke-opacity:1;fill:#000000;fill-opacity:1"
         transform="scale(0.8) translate(12.5,0)" />
    </marker>
    <marker
       inkscape:stockid="Arrow1Lstart"
       orient="auto"
       refY="0.0"
       refX="0.0"
       id="Arrow1Lstart"
       style="overflow:visible"
       inkscape:isstock="true">
      <path
         id="path4147"
         d="M 0.0,0.0 L 5.0,-5.0 L -12.5,0.0 L 5.0,5.0 L 0.0,0.0 z "
         style="fill-rule:evenodd;stroke:none;stroke-width:1pt;stroke-opacity:1;fill:#000000;fill-opacity:1"
         transform="scale(0.8) translate(12.5,0)" />
    </marker>
    <marker
       inkscape:stockid="Arrow2Lend"
       orient="auto"
       refY="0.0"
       refX="0.0"
       id="Arrow2Lend"
       style="overflow:visible;"
       inkscape:isstock="true">
      <path
         id="path4168"
         style="fill-rule:evenodd;stroke-width:0.625;stroke-linejoin:round;stroke:none;stroke-opacity:1;fill:#000000;fill-opacity:1"
         d="M 8.7185878,4.0337352 L -2.2072895,0.016013256 L 8.7185884,-4.0017078 C 6.9730900,-1.6296469 6.9831476,1.6157441 8.7185878,4.0337352 z "
         transform="scale(1.1) rotate(180) translate(1,0)" />
    </marker>
    <linearGradient
       id="linearGradient6903"
       y2="112.47"
       gradientUnits="userSpaceOnUse"
       x2="-312.37"
       gradientTransform="translate(331.34706,-150.96123)"
       y1="184.71"
       x1="-313.02">
      <stop
         id="stop22496-54-8"
         stop-color="#FFF"
         offset="0" />
      <stop
         id="stop22498-4-61"
         stop-color="#FFF"
         stop-opacity="0"
         offset="1" />
    </linearGradient>
  </defs>
  <metadata
     id="metadata7203">
    <rdf:RDF>
      <cc:Work
         rdf:about="">
        <dc:format>image/svg+xml</dc:format>
        <dc:type
           rdf:resource="http://purl.org/dc/dcmitype/StillImage" />
        <dc:title />
      </cc:Work>
    </rdf:RDF>
  </metadata>
  <g
     id="g4170">
    <path
       inkscape:connector-curvature="0"
       style="fill:url(#linearGradient6903);stroke-miterlimit:10"
       stroke-miterlimit="10"
       d="m 18.65927,2.2e-4 c -10.31,0 -18.66,8.35 -18.66,18.66 0,10.3 8.35,18.65 18.66,18.65 10.3,0 18.65,-8.35 18.65,-18.65 0,-10.31 -8.35,-18.66 -18.65,-18.66"
       id="path25240" />
    <path
       style="fill:none;fill-rule:evenodd;stroke:#000000;stroke-width:2;stroke-linecap:butt;stroke-linejoin:miter;stroke-miterlimit:4;stroke-dasharray:none;stroke-opacity:1;marker-end:url(#Arrow1Send)"
       d="m 13.191784,19.424835 6.484097,0"
       id="path4565"
       inkscape:connector-curvature="0" />
    <path
       style="fill:none;fill-rule:evenodd;stroke:#000000;stroke-width:1px;stroke-linecap:butt;stroke-linejoin:miter;stroke-opacity:1"
       d="M 28.619464,8.6925364 29.066643,29.486366"
       id="path4905"
       inkscape:connector-curvature="0" />
    <path
       id="path25248-1-9"
       style="color:#000000;fill:#000000;fill-rule:nonzero;enable-background:accumulate"
       d="m 31.061406,8.4689471 c 0,1.343068 -1.098874,2.4419409 -2.441942,2.4419409 -1.343068,0 -2.441941,-1.0988729 -2.441941,-2.4419409 0,-1.343068 1.098873,-2.441942 2.441941,-2.441942 1.343068,0 2.441942,1.098874 2.441942,2.441942 z"
       inkscape:connector-curvature="0" />
    <path
       id="path25248-1-6"
       style="color:#000000;fill:#000000;fill-rule:nonzero;enable-background:accumulate"
       d="m 31.284995,29.933545 c 0,1.343068 -1.098874,2.441941 -2.441942,2.441941 -1.343068,0 -2.441941,-1.098873 -2.441941,-2.441941 0,-1.343068 1.098873,-2.441942 2.441941,-2.441942 1.343068,0 2.441942,1.098874 2.441942,2.441942 z"
       inkscape:connector-curvature="0" />
    <rect
       style="fill:#000000;fill-opacity:1;stroke:#000000;stroke-width:2.60918021;stroke-miterlimit:4;stroke-dasharray:none;stroke-opacity:1"
       id="rect4937"
       width="2.2974842"
       height="2.0738945"
       x="5.6707392"
       y="18.164297" />
    <rect
       style="fill:#000000;fill-opacity:1;stroke:#000000;stroke-width:2.60918021;stroke-miterlimit:4;stroke-dasharray:none;stroke-opacity:1"
       id="rect4937-6"
       width="2.2974842"
       height="2.0738945"
       x="27.470722"
       y="18.611477" />
  </g>
</svg>
